<svg width="26" height="27" fill="none" xmlns="http://www.w3.org/2000/svg"><path d="M10.385 24.035v2.633l-.637-.514c-.098-.08-2.44-1.98-4.813-4.705C1.66 17.689 0 14.314 0 11.419v-.288C0 5.405 4.659.747 10.385.747S20.77 5.405 20.77 11.13v.287c0 .244-.013.49-.037.74l-2.03-1.852c-.417-4.223-3.988-7.533-8.318-7.533-4.609 0-8.359 3.75-8.359 8.358v.287c0 4.894 6.306 10.818 8.359 12.617zm6.23-1.455h3.04v-3.04h-3.04v3.04zm-6.23-15.755a4.31 4.31 0 014.306 4.306 4.31 4.31 0 01-4.306 4.306 4.31 4.31 0 01-4.306-4.306 4.31 4.31 0 014.306-4.306zm0 2.027a2.282 2.282 0 00-2.28 2.28 2.282 2.282 0 002.28 2.279 2.282 2.282 0 002.28-2.28 2.282 2.282 0 00-2.28-2.28zm14.25 12.35l-.57-.519v3.253a2.75 2.75 0 01-2.747 2.747h-6.416a2.75 2.75 0 01-2.747-2.747v-3.253l-.57.52-1.365-1.497 7.89-7.198L26 19.706l-1.366 1.497zm-2.597-2.367L18.11 15.25l-3.928 3.584v5.101c0 .398.323.72.72.72h6.416a.72.72 0 00.72-.72v-5.101z" fill="#0082C8"/></svg>