<svg width="70" height="70" fill="none" xmlns="http://www.w3.org/2000/svg"><path d="M52.773 31.445a2.734 2.734 0 100-5.468 2.734 2.734 0 000 5.468z" fill="#80CFF1"/><path d="M59.063 5.469h-3.555V2.734a2.734 2.734 0 10-5.469 0V5.47H37.598V2.734a2.734 2.734 0 10-5.47 0V5.47H19.825V2.734a2.734 2.734 0 10-5.469 0V5.47h-3.418C4.907 5.469 0 10.375 0 16.406v42.657C0 65.093 4.907 70 10.938 70h20.917a2.734 2.734 0 100-5.469H10.938a5.475 5.475 0 01-5.468-5.469V16.407a5.475 5.475 0 015.468-5.468h3.418v2.734a2.734 2.734 0 105.47 0v-2.735H32.13v2.735a2.734 2.734 0 105.469 0v-2.735H50.04v2.735a2.734 2.734 0 105.469 0v-2.735h3.554a5.475 5.475 0 015.47 5.47v15.585a2.734 2.734 0 105.468 0V16.406c0-6.03-4.907-10.937-10.938-10.937z" fill="#80CFF1"/><path d="M53.457 36.914c-9.122 0-16.543 7.421-16.543 16.543S44.335 70 53.457 70 70 62.579 70 53.457s-7.421-16.543-16.543-16.543zm0 27.617c-6.106 0-11.074-4.968-11.074-11.074s4.968-11.074 11.074-11.074 11.074 4.968 11.074 11.074-4.968 11.074-11.074 11.074z" fill="#80CFF1"/><path d="M57.422 50.723h-1.23v-2.871a2.734 2.734 0 10-5.47 0v5.605a2.734 2.734 0 002.735 2.734h3.965a2.734 2.734 0 100-5.468zM40.879 31.445a2.734 2.734 0 100-5.468 2.734 2.734 0 000 5.468zM28.984 43.34a2.734 2.734 0 100-5.469 2.734 2.734 0 000 5.469zM17.09 31.445a2.734 2.734 0 100-5.468 2.734 2.734 0 000 5.468zm0 11.895a2.734 2.734 0 100-5.469 2.734 2.734 0 000 5.469zm0 11.894a2.734 2.734 0 100-5.468 2.734 2.734 0 000 5.468zm11.894 0a2.734 2.734 0 100-5.468 2.734 2.734 0 000 5.468zm0-23.789a2.734 2.734 0 100-5.469 2.734 2.734 0 000 5.47z" fill="#80CFF1"/></svg>