<svg width="68" height="70" fill="none" xmlns="http://www.w3.org/2000/svg"><path d="M61.455 50.733c-6.077-8.298-13.651-10.22-17.649-11.483v-2.935a14.672 14.672 0 004.364-10.45V10.258C48.17 4.602 43.57 0 37.912 0h-8.878c-5.656 0-10.258 4.602-10.258 10.258v15.607c0 4.018 1.62 7.665 4.238 10.323v3.145c-3.728 1.177-11.31 3.105-17.385 11.4A28.95 28.95 0 000 67.949 2.05 2.05 0 002.05 70h62.983a2.05 2.05 0 002.05-2.05 28.951 28.951 0 00-5.628-17.217zm-21.75-10.58L33.8 49.395a4.636 4.636 0 00-.696.004l-5.988-9.174v-1.099a14.663 14.663 0 0012.589.06v.967zM24.29 20.806l-1.413-4.53v-.746h21.191v.723c-.044.132.27-.832-1.477 4.553-9.874-1.454-8.284-1.475-18.301 0zm-1.413-10.548a6.164 6.164 0 016.156-6.156h8.878a6.164 6.164 0 016.157 6.156v1.17h-21.19v-1.17zm0 14.493c.426.152.855.217 1.146.217.214 0-.258.06 6.51-.936 3.585-.527 5.536-.04 12.024.915.476.07 1.064-.05 1.511-.219v1.136c0 5.85-4.753 10.61-10.596 10.61-5.817 0-10.595-4.737-10.595-10.61v-1.113zm1.32 18.509l5.265 8.064c-2.959 3.716.335 9.176 5.036 8.217v1.93a2.05 2.05 0 004.101 0v-6.957c0-1.22-.429-2.343-1.143-3.225l5.18-8.107c3.005.948 4.595 1.37 6.946 2.596v20.12H17.5v-20.12c2.35-1.225 3.98-1.66 6.698-2.518zm-10.8 5.197v17.441H4.184a24.904 24.904 0 019.214-17.441zm40.287 17.441V48.457a24.904 24.904 0 019.214 17.441h-9.214z" fill="#80CFF1"/></svg>