<svg width="30" height="16" fill="none" xmlns="http://www.w3.org/2000/svg"><path d="M29.776 7.414C29.508 7.115 23.066.09 14.999.09S.492 7.115.224 7.414a.879.879 0 000 1.172c.267.299 6.708 7.324 14.775 7.324 8.068 0 14.509-7.025 14.777-7.324a.879.879 0 000-1.172zm-14.777 6.738A6.16 6.16 0 018.848 8 6.16 6.16 0 0115 1.848 6.16 6.16 0 0121.152 8a6.16 6.16 0 01-6.153 6.152z" fill="#0082C8"/><path d="M15.879 6.242c0-.884.439-1.662 1.107-2.14A4.338 4.338 0 0015 3.605 4.4 4.4 0 0010.605 8 4.4 4.4 0 0015 12.395c2.17 0 3.965-1.585 4.32-3.654-1.77.57-3.441-.769-3.441-2.499z" fill="#0082C8"/></svg>