<svg width="71" height="70" fill="none" xmlns="http://www.w3.org/2000/svg"><path d="M58.38 10.254C58.38 4.6 53.716 0 47.98 0c-5.734 0-10.4 4.6-10.4 10.254s4.666 10.254 10.4 10.254c5.735 0 10.4-4.6 10.4-10.254zm-10.4 6.152c-3.44 0-6.24-2.76-6.24-6.152 0-3.392 2.8-6.152 6.24-6.152 3.441 0 6.24 2.76 6.24 6.152 0 3.392-2.799 6.152-6.24 6.152z" fill="#79C1E9"/><path d="M8.459 67.95c0 1.132.931 2.05 2.08 2.05h49.922c1.149 0 2.08-.918 2.08-2.05V49.204a20.214 20.214 0 004.16-12.29c0-9.047-7.465-16.407-16.64-16.407h-10.4a6.265 6.265 0 00-4.161 1.57 6.265 6.265 0 00-4.16-1.57h-10.4c-9.176 0-16.641 7.36-16.641 16.406 0 4.607 1.549 8.864 4.16 12.291V67.95zm4.16-14.64a20.886 20.886 0 0012.48 4.112v8.476H12.62V53.31zm20.8-2.04c0-2.444-1.451-4.559-3.55-5.551a2.088 2.088 0 011.47-.602h8.321c.574 0 1.094.23 1.47.602-2.098.992-3.55 3.107-3.55 5.55 0 2.674 1.74 4.954 4.16 5.8v8.83H29.26v-8.83c2.42-.846 4.16-3.126 4.16-5.8zM45.9 65.898v-8.476c4.68 0 9.002-1.531 12.48-4.112v12.588H45.9zM35.5 28.711c2.294 0 4.16 1.84 4.16 4.102 0 2.261-1.866 4.101-4.16 4.101s-4.16-1.84-4.16-4.102c0-2.261 1.866-4.101 4.16-4.101zm-14.56-4.102h10.4c.51 0 .978.184 1.34.486-3.203 1.141-5.5 4.17-5.5 7.718 0 4.523 3.732 8.203 8.32 8.203s8.32-3.68 8.32-8.203c0-3.549-2.297-6.577-5.5-7.718.361-.302.83-.486 1.34-.486h10.4c6.882 0 12.481 5.52 12.481 12.305 0 9.047-7.465 16.406-16.64 16.406h-2.08c-1.148 0-2.08-.92-2.08-2.05 0-1.131.932-2.051 2.08-2.051h2.08c6.881 0 12.48-5.52 12.48-12.305 0-1.133-.931-2.05-2.08-2.05s-2.08.918-2.08 2.05c0 4.523-3.733 8.203-8.32 8.203h-.358a6.245 6.245 0 00-5.883-4.101h-8.32a6.245 6.245 0 00-5.883 4.101H25.1c-4.588 0-8.32-3.68-8.32-8.203 0-1.133-.932-2.05-2.08-2.05-1.15 0-2.08.918-2.08 2.05 0 6.785 5.598 12.305 12.48 12.305h2.08c1.147 0 2.08.92 2.08 2.05 0 1.131-.933 2.051-2.08 2.051H25.1c-9.176 0-16.641-7.36-16.641-16.406 0-6.785 5.599-12.305 12.48-12.305z" fill="#79C1E9"/><path d="M33.42 10.254C33.42 4.6 28.754 0 23.02 0c-5.735 0-10.4 4.6-10.4 10.254s4.665 10.254 10.4 10.254c5.734 0 10.4-4.6 10.4-10.254zm-10.4 6.152c-3.441 0-6.24-2.76-6.24-6.152 0-3.392 2.799-6.152 6.24-6.152 3.44 0 6.24 2.76 6.24 6.152 0 3.392-2.8 6.152-6.24 6.152z" fill="#79C1E9"/></svg>