<svg width="16" height="16" fill="none" xmlns="http://www.w3.org/2000/svg"><path d="M12.645 9.911c-.327-.34-.723-.523-1.141-.523-.416 0-.814.18-1.155.52l-1.067 1.064c-.088-.047-.176-.091-.26-.135-.122-.061-.237-.118-.335-.18-1-.634-1.908-1.461-2.779-2.532-.422-.533-.706-.983-.912-1.438.277-.254.534-.517.784-.77l.283-.287c.71-.71.71-1.628 0-2.337l-.921-.922c-.105-.105-.213-.213-.315-.32a15.95 15.95 0 00-.634-.63c-.328-.323-.72-.495-1.132-.495-.412 0-.81.172-1.148.496l-.007.007L.758 2.587a2.47 2.47 0 00-.732 1.57c-.082.986.209 1.905.432 2.506.547 1.476 1.364 2.843 2.583 4.309a15.89 15.89 0 005.292 4.143c.776.368 1.813.804 2.971.878.071.004.146.007.213.007.78 0 1.435-.28 1.949-.837.003-.007.01-.01.013-.017.176-.213.378-.405.591-.612.145-.138.294-.283.44-.435.333-.348.509-.753.509-1.169 0-.418-.179-.82-.52-1.158l-1.854-1.86zm1.209 3.556c-.003 0-.003.004 0 0-.132.142-.267.27-.412.412-.22.21-.442.43-.652.676-.34.364-.743.537-1.27.537-.05 0-.104 0-.155-.004-1.003-.064-1.935-.456-2.634-.79a15 15 0 01-4.984-3.904c-1.152-1.388-1.922-2.67-2.431-4.049C1 5.505.886 4.85.937 4.232a1.55 1.55 0 01.466-1.003l1.152-1.152c.165-.155.34-.24.513-.24.213 0 .385.129.493.237l.01.01c.206.192.402.392.608.604.105.108.213.216.32.328l.923.922c.358.358.358.689 0 1.047-.098.098-.193.195-.29.29-.284.29-.554.56-.848.824-.007.007-.014.01-.017.017-.29.29-.236.574-.176.766l.01.03c.24.582.578 1.129 1.091 1.78l.004.004c.932 1.148 1.914 2.043 2.998 2.728a4.6 4.6 0 00.416.227c.121.06.236.118.334.179.013.006.027.017.04.023a.732.732 0 00.335.085c.28 0 .456-.176.513-.233l1.155-1.155c.115-.115.297-.254.51-.254.21 0 .382.132.486.247l.007.007 1.86 1.86c.348.345.348.7.004 1.057zM8.647 3.806a4.283 4.283 0 012.33 1.209 4.305 4.305 0 011.209 2.33c.037.223.23.378.449.378.027 0 .05-.003.078-.006a.456.456 0 00.374-.527 5.208 5.208 0 00-1.462-2.82 5.208 5.208 0 00-2.82-1.462.458.458 0 00-.526.371.45.45 0 00.368.527zm7.334 3.252a8.568 8.568 0 00-2.407-4.643A8.569 8.569 0 008.93.007a.454.454 0 10-.148.898 7.673 7.673 0 014.15 2.151 7.65 7.65 0 012.151 4.15c.037.224.23.379.45.379.026 0 .05-.004.077-.007a.447.447 0 00.371-.52z" fill="#fff"/></svg>