<svg width="19" height="19" fill="none" xmlns="http://www.w3.org/2000/svg"><path d="M5.246 4.324a.702.702 0 00-.993 0 4.797 4.797 0 00-1.372 3.889.702.702 0 101.397-.14 3.399 3.399 0 01.968-2.756.702.702 0 000-.993z" fill="#0082C8"/><path d="M8.026 0C3.6 0 0 3.6 0 8.026c0 4.425 3.6 8.026 8.026 8.026 4.425 0 8.026-3.6 8.026-8.026S12.452 0 8.026 0zm0 14.648a6.63 6.63 0 01-6.622-6.622 6.63 6.63 0 016.622-6.622 6.63 6.63 0 016.622 6.622 6.63 6.63 0 01-6.622 6.622z" fill="#0082C8"/><path d="M18.794 17.802l-5.1-5.101a.702.702 0 10-.993.992l5.1 5.101a.7.7 0 00.993 0 .702.702 0 000-.992z" fill="#0082C8"/></svg>