<svg width="28" height="27" fill="none" xmlns="http://www.w3.org/2000/svg"><path d="M16.67 18.285h.002l.149.072c.079.038.16.076.24.116l1.799-1.667c.607-.565 1.32-.865 2.069-.865.754 0 1.462.306 2.046.871 0 0 0 0 0 0l3.21 2.997h.001c.607.56.933 1.233.933 1.94 0 .702-.32 1.38-.914 1.955 0 0 0 0 0 0l-.07-.071c-.251.245-.509.479-.76.702l-8.704-6.05zm0 0A7.502 7.502 0 0116.1 18l.57.284zm8.691 6.197l.08-.073L1.044 7.611c-.14 1.59.363 3.07.749 4.038l-.093.037s0 0 0 0c.953 2.392 2.376 4.605 4.494 6.974h0a27.44 27.44 0 009.201 6.702h0c1.349.594 3.158 1.303 5.184 1.423h.001c.123.006.253.011.373.011 1.376 0 2.537-.46 3.447-1.379l.01-.01.002-.004a.16.16 0 00.02-.023c.276-.31.592-.595.93-.898zm-.293-1.935a2.568 2.568 0 01-.066.067L25 22.612v-.095a.098.098 0 01.068.03zm-.149.006a.128.128 0 00-.006.008c-.18.18-.364.345-.56.522l-.133.122c-.38.337-.769.693-1.135 1.093-.57.567-1.24.835-2.127.835-.088 0-.179 0-.263-.006h0c-1.719-.102-3.32-.727-4.529-1.264a25.708 25.708 0 01-8.601-6.267c-1.99-2.23-3.316-4.288-4.194-6.495h0c-.54-1.347-.735-2.386-.649-3.361.056-.611.308-1.116.776-1.552l1.994-1.855c.274-.239.556-.36.822-.36.331 0 .606.186.786.354l.018.016h0l.002.002c.355.309.693.629 1.05.971h0c.09.088.183.175.276.263l.002.002.278.263h0v.001l1.598 1.486c.3.28.433.533.433.77 0 .238-.132.49-.433.77l-.17.16c-.111.104-.22.207-.332.307h0l-.002.002a29.55 29.55 0 01-1.464 1.324h0l-.004.003-.002.002-.003.003-.006.004a.155.155 0 00-.026.026c-.261.246-.374.495-.403.73-.03.234.026.443.08.603h0v.002l.018.049h0l.003.007c.42.947 1.012 1.837 1.905 2.892h0l.008.008.002.002c1.62 1.856 3.33 3.304 5.216 4.414.245.144.494.26.727.368h.002c.211.1.406.19.571.285h0l.008.004a.369.369 0 01.027.015h.001a1.444 1.444 0 00.663.168c.525 0 .854-.305.957-.4v-.002l2.002-1.86c.193-.18.485-.382.815-.382.324 0 .598.19.771.367h0l.003.003.012.011 3.224 2.999h0c.29.267.42.524.42.77.001.244-.125.503-.405.777a.103.103 0 00-.023.021zm-3.247-7.524h0l.004-.001c.47-.087.762-.583.69-1.084v-.001c-.3-1.993-1.13-3.81-2.4-5.252-1.27-1.442-2.875-2.389-4.638-2.73h0c-.473-.087-.896.27-.974.768-.077.495.207.999.679 1.086 1.414.27 2.7 1.03 3.73 2.197 1.028 1.169 1.696 2.633 1.94 4.247.067.452.415.783.829.783a.86.86 0 00.127-.012l.013-.001zm-7.109-13.65h0v.001c-.072.503.22.99.688 1.084h0c2.534.488 4.847 1.852 6.689 3.936 1.841 2.09 3.04 4.72 3.471 7.604.067.452.415.783.829.783.047 0 .09-.006.127-.012l.013-.002h.003c.465-.08.764-.576.686-1.073-.491-3.27-1.85-6.246-3.937-8.616-2.087-2.37-4.713-3.914-7.6-4.473-.47-.095-.892.272-.97.768z" fill="#0082C8" stroke="#0082C8" stroke-width=".2"/></svg>