<svg width="15" height="15" fill="none" xmlns="http://www.w3.org/2000/svg"><path d="M5.991 13.469v1.523l-.367-.298a24.648 24.648 0 01-2.777-2.721C.957 9.798 0 7.847 0 6.172v-.166C0 2.694 2.688 0 5.991 0c3.304 0 5.991 2.694 5.991 6.006v.166a4.8 4.8 0 01-.02.428L10.79 5.528c-.24-2.442-2.3-4.356-4.799-4.356-2.659 0-4.822 2.168-4.822 4.834v.166c0 2.83 3.638 6.256 4.822 7.297zm3.595-.842h1.753v-1.758H9.586v1.758zM5.99 3.516a2.49 2.49 0 010 4.98 2.49 2.49 0 010-4.98zm0 1.171a1.318 1.318 0 000 2.637 1.318 1.318 0 000-2.636zm8.221 7.144l-.329-.301v1.881c0 .876-.71 1.589-1.584 1.589H8.597a1.589 1.589 0 01-1.584-1.589V11.53l-.33.3-.787-.865 4.552-4.163L15 10.965l-.788.866zm-1.498-1.37l-2.266-2.073-2.266 2.073v2.95c0 .23.186.417.415.417H12.3a.416.416 0 00.415-.417v-2.95z" fill="#fff"/></svg>