<svg width="31" height="31" fill="none" xmlns="http://www.w3.org/2000/svg"><g clip-path="url(#clip0)"><path d="M15.687 25.188c4.485 0 2.886-2.84 3.232-3.656-.005-.61-.01-1.196.01-1.552.285.08.955.42 2.34 1.765 2.137 2.157 2.684 3.442 4.41 3.442h3.18c1.007 0 1.531-.417 1.793-.767.254-.338.502-.932.23-1.857-.709-2.227-4.845-6.072-5.102-6.478.04-.075.101-.174.133-.226h-.002c.816-1.079 3.932-5.746 4.39-7.614a.024.024 0 00.003-.01c.248-.853.02-1.406-.215-1.719-.354-.467-.917-.704-1.677-.704h-3.18c-1.064 0-1.87.537-2.28 1.514-.682 1.738-2.602 5.31-4.04 6.575a82.903 82.903 0 01.008-4.176c.047-1.983.197-3.912-1.861-3.912h-4.996c-1.29 0-2.523 1.407-1.187 3.079 1.168 1.465.42 2.28.671 6.345-.981-1.053-2.728-3.896-3.962-7.53-.346-.983-.87-1.893-2.347-1.893h-3.18C.77 5.814 0 6.516 0 7.694c0 2.642 5.85 17.493 15.687 17.493zM5.237 7.75c.281 0 .31 0 .517.59 1.265 3.725 4.101 9.235 6.173 9.235 1.557 0 1.557-1.596 1.557-2.196l-.002-4.782c-.085-1.582-.66-2.37-1.04-2.848l4.532.005c.002.022-.026 5.29.013 6.566 0 1.812 1.439 2.85 3.685.577 2.37-2.675 4.01-6.674 4.075-6.837.097-.232.18-.311.486-.311h3.191c0 .004 0 .008-.002.012-.29 1.356-3.16 5.678-4.12 7.02-.015.02-.029.043-.043.064-.423.69-.766 1.452.058 2.524h.001c.075.09.27.303.554.597.884.912 3.914 4.03 4.183 5.27-.178.029-.372.008-3.375.014-.64 0-1.14-.956-3.047-2.88-1.716-1.669-2.83-2.351-3.843-2.351-1.969 0-1.825 1.598-1.807 3.53.006 2.095-.007 1.433.008 1.564-.115.046-.445.136-1.304.136-8.195 0-13.532-13.008-13.738-15.495.071-.006 1.049-.002 3.289-.004z" fill="#fff"/></g><defs><clipPath id="clip0"><path fill="#fff" d="M0 0h31v31H0z"/></clipPath></defs></svg>