<svg width="31" height="21" viewBox="0 0 31 21" fill="none" xmlns="http://www.w3.org/2000/svg">
<path d="M15.6873 20.1875C20.172 20.1875 18.5729 17.3484 18.919 16.5321C18.9139 15.9224 18.9087 15.336 18.9294 14.9795C19.2135 15.0596 19.8839 15.3993 21.2686 16.7452C23.4063 18.9023 23.9527 20.1875 25.6796 20.1875H28.8584C29.8659 20.1875 30.3903 19.7703 30.6525 19.4202C30.9057 19.0818 31.1537 18.4877 30.8825 17.5628C30.1733 15.336 26.0374 11.4907 25.7804 11.0851C25.8191 11.0102 25.8811 10.9107 25.9134 10.8591H25.9108C26.7272 9.78054 29.8427 5.11246 30.3012 3.24471C30.3025 3.24212 30.3038 3.23825 30.3038 3.23438C30.5518 2.38187 30.3245 1.82904 30.0894 1.51646C29.7355 1.04888 29.1723 0.8125 28.4115 0.8125H25.2327C24.1684 0.8125 23.3611 1.34854 22.9529 2.32633C22.2696 4.06362 20.3502 7.63637 18.9113 8.90092C18.8674 7.10938 18.8971 5.7415 18.9203 4.72496C18.9668 2.74225 19.1167 0.8125 17.059 0.8125H12.0629C10.7738 0.8125 9.54025 2.22042 10.8758 3.89183C12.0435 5.35658 11.2956 6.17292 11.5475 10.2365C10.5658 9.18379 8.8195 6.34083 7.58467 2.70737C7.2385 1.72442 6.71408 0.813792 5.23771 0.813792H2.05892C0.769833 0.813792 0 1.51646 0 2.69317C0 5.33592 5.84996 20.1875 15.6873 20.1875ZM5.23771 2.75129C5.518 2.75129 5.54642 2.75129 5.75437 3.34158C7.01892 7.06546 9.85542 12.5757 11.9272 12.5757C13.4837 12.5757 13.4837 10.9805 13.4837 10.3799L13.4824 5.59812C13.3972 4.01583 12.8211 3.22792 12.4426 2.75L16.9738 2.75517C16.9764 2.77713 16.948 8.04454 16.9867 9.32071C16.9867 11.1329 18.4256 12.1714 20.6718 9.89808C23.042 7.22304 24.6812 3.22404 24.747 3.06129C24.8439 2.82879 24.9279 2.75 25.2327 2.75H28.4115H28.4244C28.4231 2.75387 28.4231 2.75775 28.4218 2.76162C28.1312 4.11787 25.2624 8.43979 24.3027 9.78183C24.2872 9.8025 24.273 9.82446 24.2588 9.84642C23.8364 10.5362 23.4928 11.2982 24.3169 12.3703H24.3182C24.3931 12.4607 24.5882 12.6726 24.8723 12.9671C25.7558 13.879 28.7861 16.9971 29.0547 18.2371C28.8765 18.2655 28.6828 18.2448 25.6796 18.2513C25.0403 18.2513 24.5404 17.2955 22.6326 15.3709C20.9172 13.702 19.8038 13.02 18.7899 13.02C16.8214 13.02 16.9647 14.6178 16.9828 16.5502C16.9893 18.6453 16.9764 17.9826 16.9906 18.1144C16.8756 18.1596 16.5462 18.25 15.6873 18.25C7.49167 18.25 2.1545 5.24162 1.94912 2.75517C2.02017 2.74871 2.99796 2.75258 5.23771 2.75129Z" fill="#0082C8"/>
</svg>
